Coordinates
version=1
nRows=8
nColumns=42
inDegrees=yes

Units are S.I. units (second, meters, Newtons, ...)
If the header above contains a line with 'inDegrees', this indicates whether rotational values are in degrees (yes) or radians (no).

endheader
time	pelvis_tilt	pelvis_list	pelvis_rotation	pelvis_tx	pelvis_ty	pelvis_tz	hip_flexion_r	hip_adduction_r	hip_rotation_r	knee_angle_r	knee_adduction_r	knee_angle_r_beta	ankle_angle_r	subtalar_angle_r	mtp_angle_r	hip_flexion_l	hip_adduction_l	hip_rotation_l	knee_angle_l	knee_adduction_l	knee_angle_l_beta	ankle_angle_l	subtalar_angle_l	mtp_angle_l	lumbar_extension	lumbar_bending	lumbar_rotation	arm_flex_r	arm_add_r	arm_rot_r	elbow_flex_r	pro_sup_r	wrist_flex_r	wrist_dev_r	arm_flex_l	arm_add_l	arm_rot_l	elbow_flex_l	pro_sup_l	wrist_flex_l	wrist_dev_l
      1.32000000	     13.96018798	     -5.70409465	      4.12503025	      0.28430796	      0.85361147	     -0.16249359	      2.80016068	      7.16003437	     -9.94008886	     18.00366471	      1.91679015	      0.31422323	     10.29359808	    -10.07008705	     -7.51299183	    -24.87441251	    -10.81323751	      0.20342658	     42.47259421	      9.53394838	      0.74128661	     -8.21145170	    -14.03054461	     -7.51299183	    -27.92489833	      6.79475299	      3.19208713	     -5.08659549	     -6.68406615	    -10.52992626	     26.26091880	     90.00000001	      0.00000000	      0.00000000	     20.53885250	     -6.57745547	      4.57896301	     42.03672397	     90.00000001	      0.00000000	      0.00000000
      1.33000000	     14.08810867	     -5.78702470	      3.90432976	      0.29557668	      0.85504588	     -0.16095740	      1.69717529	      7.51654091	     -9.81822680	     17.74599065	      1.78573855	      0.30972597	     10.98201284	     -9.41452465	     -7.51265583	    -23.45069524	    -11.07910967	      0.36630922	     45.58982012	      9.37206659	      0.79569247	     -8.61599174	    -15.14774338	     -7.51265583	    -28.10168239	      6.76166499	      3.45473539	     -4.12736784	     -6.82158261	    -10.36317483	     26.37970109	     90.00000001	      0.00000000	      0.00000000	     19.79797196	     -6.50674378	      4.47771226	     40.81741719	     90.00000001	      0.00000000	      0.00000000
      1.34000000	     14.08643303	     -5.90283442	      3.65980585	      0.30660362	      0.85620737	     -0.15937460	      0.82063696	      7.90781049	     -9.90458969	     17.61472119	      1.54624371	      0.30743488	     11.69908481	     -8.58367511	     -7.51206111	    -21.73909404	    -11.38647270	     -0.00460996	     48.78814065	      8.81963428	      0.85151369	     -8.16264135	    -15.89708052	     -7.51206111	    -28.14634386	      6.73193573	      3.74846790	     -3.12488469	     -6.98117964	    -10.11969002	     26.50550435	     90.00000001	      0.00000000	      0.00000000	     19.06436948	     -6.37980880	      4.09401036	     39.53671864	     90.00000001	      0.00000000	      0.00000000
      1.35000000	     14.31525197	     -5.78240885	      3.56672850	      0.31760005	      0.85775320	     -0.15812175	     -0.49520534	      7.97678477	     -9.87958044	     17.17583880	      1.53112747	      0.29977494	     12.44522860	     -7.87124007	     -7.51174860	    -20.27138083	    -11.38723158	     -0.41567471	     51.56287655	      7.88334111	      0.89994197	     -7.10340914	    -16.49388003	     -7.51174860	    -28.43975156	      6.51213220	      3.84458565	     -2.09486753	     -7.06740410	     -9.92323432	     26.75316239	     90.00000001	      0.00000000	      0.00000000	     18.32329546	     -6.37310998	      3.99240532	     38.38321997	     90.00000001	      0.00000000	      0.00000000
      1.36000000	     14.38858931	     -5.80731620	      3.36014668	      0.32833356	      0.85897815	     -0.15668148	     -1.52095025	      8.24086892	     -9.79742271	     16.90548473	      1.36242501	      0.29505637	     13.15267067	     -7.12214986	     -7.51123403	    -18.51460693	    -11.55595147	     -1.66767327	     54.32894396	      6.43524042	      0.94821895	     -5.52471934	    -16.58994354	     -7.51123403	    -28.59046041	      6.38392673	      4.10538333	     -1.02441328	     -7.21606721	     -9.60892984	     26.98069637	     90.00000001	      0.00000000	      0.00000000	     17.60550824	     -6.25996474	      3.59289703	     37.14952678	     90.00000001	      0.00000000	      0.00000000
      1.37000000	     14.76250284	     -5.51559947	      3.29629991	      0.33904199	      0.86076340	     -0.15568466	     -3.00277866	      8.06807131	     -9.73159868	     16.48830735	      1.40240731	      0.28777525	     13.67825044	     -6.69563274	     -7.51102833	    -17.19290761	    -11.28594871	     -2.23974235	     56.37381297	      5.19531540	      0.98390865	     -3.70653130	    -17.16715465	     -7.51102833	    -29.07611075	      5.99422291	      4.13713066	      0.08327395	     -7.27539509	     -9.43101801	     27.35061027	     90.00000001	      0.00000000	      0.00000000	     16.82630229	     -6.28554327	      3.51696133	     36.20151543	     90.00000001	      0.00000000	      0.00000000
      1.38000000	     15.06438419	     -5.23329821	      3.18857535	      0.34956328	      0.86241309	     -0.15451333	     -4.38476867	      7.93626752	     -9.51250122	     16.06864483	      1.40776940	      0.28045076	     14.17984444	     -6.28270675	     -7.51083400	    -15.73107796	    -11.05324472	     -3.08139767	     58.21803680	      3.85936793	      1.01609643	     -1.91994945	    -17.42225162	     -7.51083400	    -29.48146152	      5.57338148	      4.22243721	      1.20870310	     -7.34275548	     -9.21859892	     27.70629047	     90.00000001	      0.00000000	      0.00000000	     16.07203074	     -6.32727743	      3.39903335	     35.24538188	     90.00000001	      0.00000000	      0.00000000
      1.39000000	     15.15054565	     -5.18879294	      2.88605101	      0.36011533	      0.86371243	     -0.15324204	     -5.72142331	      8.07177005	     -8.35687736	     15.19430173	      1.53711528	      0.26519059	     14.43367369	     -6.70376814	     -7.51000797	    -13.95947766	    -11.05489152	     -5.51026120	     59.90463535	      1.43810534	      1.04553312	      0.25640616	    -16.60776314	     -7.51000797	    -29.62928710	      5.33551985	      4.49135458	      2.28606924	     -7.55329471	     -8.39288104	     28.09670041	     90.00000001	      0.00000000	      0.00000000	     15.34946801	     -6.06133327	      2.25121455	     33.85590116	     90.00000001	      0.00000000	      0.00000000
